<svg xmlns="http://www.w3.org/2000/svg" xmlns:xlink="http://www.w3.org/1999/xlink" width="1280" height="620" viewBox="0 0 1280 620">
  <defs>
    <clipPath id="clip-path">
      <rect id="Rectangle_8" data-name="Rectangle 8" width="1280" height="620" transform="translate(0 100)" fill="none"/>
    </clipPath>
    <clipPath id="clip-path-2">
      <rect id="Rectangle_6" data-name="Rectangle 6" width="1280" height="1280" fill="none"/>
    </clipPath>
    <linearGradient id="linear-gradient" x1="0.5" y1="1" x2="0.5" gradientUnits="objectBoundingBox">
      <stop offset="0" stop-color="#1a1a1a" stop-opacity="0.749"/>
      <stop offset="0.75" stop-color="#1a1a1a"/>
    </linearGradient>
    <radialGradient id="radial-gradient" cx="0.5" cy="0.5" r="0.5" gradientUnits="objectBoundingBox">
      <stop offset="0" stop-color="#1a1a1a" stop-opacity="0"/>
      <stop offset="1" stop-color="#1a1a1a"/>
    </radialGradient>
  </defs>
  <g id="Color_Overlay" data-name="Color Overlay" transform="translate(0 -100)" style="mix-blend-mode: hue;isolation: isolate">
    <g id="Group_6" data-name="Group 6" clip-path="url(#clip-path)">
      <rect id="Rectangle_5" data-name="Rectangle 5" width="1280" height="720" fill="#004966"/>
      <g id="Group_5" data-name="Group 5" transform="translate(0 -293.333)">
        <g id="Group_4" data-name="Group 4" clip-path="url(#clip-path-2)">
          <path id="Minor_Y" data-name="Minor Y" d="M-1632.367,29.676l-.251-.433L113.126-981.957l.251.433ZM130.834-971.412l-.251-.433L-1615.161,39.356l.25.433ZM148.291-961.3l-.251-.433L-1597.7,49.468l.251.433Zm17.458,10.112-.251-.433L-1580.246,59.58l.251.433Zm34.915,20.224-.251-.433L-1545.331,79.8l.251.433Zm17.457,10.112-.251-.433L-1527.873,89.916l.251.432Zm17.457,10.112-.251-.433-1745.744,1011.2.251.432Zm17.457,10.112-.251-.433L-1492.959,110.14l.251.432ZM287.951-880.4l-.251-.433-1745.743,1011.2.251.433Zm17.458,10.112-.251-.433-1745.744,1011.2.251.433Zm17.457,10.112-.251-.433-1745.743,1011.2.251.433Zm17.458,10.112-.251-.433L-1405.671,160.7l.251.433Zm34.915,20.224-.251-.433-1745.744,1011.2.251.433ZM392.7-819.732l-.251-.433L-1353.3,191.036l.251.433Zm17.457,10.112-.251-.433-1745.744,1011.2.251.433Zm17.457,10.112-.251-.433L-1318.384,211.26l.251.433Zm34.915,20.224-.251-.433-1745.745,1011.2.251.433Zm17.457,10.112-.251-.433L-1266.011,241.6l.25.433Zm17.458,10.112-.251-.433-1745.744,1011.2.251.433ZM514.9-748.948l-.251-.433L-1231.1,261.82l.251.433Zm34.915,20.224-.251-.433-1745.744,1011.2.251.433Zm17.457,10.112-.251-.433-1745.744,1011.2.251.433ZM584.727-708.5l-.251-.433-1745.744,1011.2.251.433Zm17.458,10.112-.251-.433L-1143.81,312.38l.251.433ZM637.1-678.164l-.251-.433L-1108.895,332.6l.251.433Zm17.458,10.112-.251-.433-1745.745,1011.2.251.433Zm17.457,10.112-.251-.433L-1073.98,352.828l.251.433Zm17.458,10.112-.251-.433L-1056.523,362.94l.251.433ZM724.387-627.6l-.251-.433-1745.745,1011.2.251.433Zm17.457,10.112-.251-.433L-1004.15,393.276l.251.433ZM759.3-607.38l-.251-.433L-986.693,403.388l.251.432Zm17.457,10.112-.251-.433L-969.235,413.5l.251.432Zm34.915,20.224-.251-.433L-934.321,433.724l.251.433Zm17.458,10.112-.251-.433L-916.863,443.836l.251.433Zm17.457,10.112-.251-.433L-899.406,453.948l.251.433Zm17.457,10.112-.251-.433L-881.948,464.06l.251.433Zm34.915,20.224-.251-.433L-847.033,484.284l.251.433Zm17.457,10.112-.251-.433L-829.576,494.4l.251.433Zm17.457,10.112-.251-.433L-812.118,504.508l.251.433Zm17.457,10.112-.251-.433L-794.661,514.62l.251.433Zm34.915,20.224-.251-.433L-759.746,534.844l.251.433Zm17.457,10.112-.251-.433L-742.289,544.956l.251.433Zm17.458,10.112-.251-.433L-724.831,555.068l.251.433Zm17.457,10.113-.251-.433L-707.374,565.18l.251.432Zm34.915,20.224-.251-.433L-672.459,585.4l.251.432Zm17.458,10.112-.251-.433L-655,595.516l.251.432Zm17.457,10.112-.251-.433L-637.544,605.628l.251.432Zm17.458,10.112-.251-.433L-620.086,615.74l.251.432Zm34.915,20.223-.25-.432L-585.171,635.964l.251.432Zm17.458,10.112-.251-.432L-567.714,646.076l.251.432Zm17.457,10.112-.251-.433L-550.257,656.188l.251.432Zm17.458,10.112-.251-.433L-532.8,666.3l.251.432Zm34.915,20.224-.251-.433L-497.885,686.524l.251.432Zm17.457,10.112-.25-.433L-480.427,696.636l.251.432Zm17.458,10.112-.25-.433L-462.97,706.748l.251.432Zm17.457,10.112-.251-.433L-445.512,716.86l.251.432Zm34.915,20.224-.25-.433L-410.6,737.084l.251.432Zm17.458,10.112-.251-.433L-393.139,747.2l.251.433Zm17.457,10.113-.251-.433L-375.682,757.307l.251.433Zm17.457,10.112-.251-.433L-358.225,767.419l.251.433Zm34.915,20.223-.251-.433L-323.309,787.644l.251.433Zm17.457,10.112-.251-.433L-305.853,797.756l.251.433ZM1457.6-202.9l-.251-.433L-288.395,807.868l.251.433Zm17.458,10.112-.251-.433L-270.938,817.98l.251.433Zm34.915,20.224-.25-.433L-236.023,838.2l.251.433Zm17.458,10.112-.251-.433L-218.565,848.316l.251.433Zm17.457,10.112-.25-.433L-201.108,858.428l.251.433Zm17.458,10.112-.251-.433L-183.65,868.54l.251.433ZM1597.259-122l-.25-.433L-148.735,888.764l.251.432Zm17.458,10.112-.25-.433L-131.277,898.876l.251.432Zm17.457,10.112-.251-.433L-113.821,908.988l.251.432Zm17.458,10.112-.251-.433L-96.363,919.1l.251.432Zm34.915,20.225-.251-.433L-61.448,939.324l.251.432ZM1702-61.332l-.25-.432L-43.991,949.436l.251.432Zm17.458,10.112-.25-.432L-26.533,959.548l.251.432Zm17.458,10.112-.251-.433L-9.076,969.66l.251.432Zm34.915,20.224-.251-.433L25.839,989.884l.251.432Zm17.457,10.112-.251-.433L43.3,1000l.251.432ZM1806.75-.66l-.251-.433L60.754,1010.108l.251.432Zm17.457,10.112-.251-.433L78.211,1020.22l.251.432Z" transform="translate(544.206 620.652)" fill="#80d1ff"/>
          <path id="Minor_X" data-name="Minor X" d="M-1091.187-304.452,654.558,706.748l-.25.432L-1091.438-304.02Zm17.207-9.679L671.765,697.068l.251-.432L-1073.73-314.564Zm17.457-10.112L689.223,686.956l.251-.432-1745.746-1011.2Zm-52.372,30.336L636.85,717.292l.251-.432L-1108.645-294.34Zm-52.373,30.336L584.477,747.628l.251-.433L-1161.017-264Zm-17.457,10.112L567.021,757.74l.251-.433-1745.745-1011.2Zm34.915-20.224L601.935,737.516l.251-.432-1745.745-1011.2Zm-52.373,30.336L549.563,767.852l.251-.433L-1195.932-243.78Zm174.574-101.12L724.137,666.732l.251-.432L-1021.358-344.9Zm17.458-10.112L741.595,656.62l.251-.432L-1003.9-355.012ZM-1231.1-223.124,514.648,788.076l.251-.433-1745.745-1011.2Zm349.148-202.24L863.8,585.836l.251-.432L-881.7-425.8Zm52.372-30.336L916.169,555.5l.25-.433L-829.326-456.132Zm17.458-10.112L933.627,545.388l.251-.433L-811.868-466.244Zm-34.915,20.224L898.712,565.612l.251-.433L-846.783-446.02Zm-139.659,80.9L759.053,646.508l.251-.432L-986.442-365.124Zm52.371-30.336L811.424,616.172l.251-.432L-934.071-395.46Zm34.915-20.224L846.339,595.948l.251-.432L-899.155-415.684Zm-17.457,10.112L828.882,606.06l.251-.432L-916.613-405.572ZM-1405.671-122,340.074,889.2l.251-.432-1745.745-1011.2Zm-139.66,80.9L200.415,970.092l.251-.432L-1545.081-41.54Zm34.915-20.225L235.329,949.868l.251-.432L-1510.165-61.764Zm52.372-30.335L287.7,919.532l.251-.432L-1457.793-92.1Zm-34.915,20.224L252.786,939.756l.251-.432L-1492.708-71.876Zm-34.915,20.223L217.871,959.98l.251-.432L-1527.623-51.652ZM-1632.618,9.452l1745.745,1011.2.251-.432L-1632.367,9.02Zm384.063-222.464L497.191,798.188l.251-.433L-1248.3-213.444ZM-1580.246-20.884,165.5,990.316l.251-.432L-1580-21.316ZM-1597.7-10.772l1745.745,1011.2.251-.432L-1597.453-11.2ZM-1615.161-.66,130.585,1010.54l.251-.432L-1614.91-1.092Zm296.776-171.9L427.361,838.636l.251-.433L-1318.134-173Zm34.915-20.224L462.276,818.412l.251-.433L-1283.219-193.22Zm-52.373,30.336L409.9,848.748l.251-.433-1745.745-1011.2Zm69.83-40.448L479.733,808.3l.251-.433-1745.745-1011.2Zm-174.574,101.12L305.159,909.42l.251-.432-1745.745-1011.2Zm17.457-10.112L322.616,899.308l.251-.432-1745.745-1011.2Zm628.467-364.032L951.084,535.276l.251-.433L-794.411-476.356ZM-1353.3-152.34,392.446,858.86l.251-.433-1745.745-1011.2Zm-17.457,10.112L374.989,868.972l.251-.433L-1370.506-142.66ZM-969.236-374.8,776.509,636.4l.251-.432L-968.985-375.236Zm785.585-455.04,1745.745,1011.2.251-.433L-183.4-830.276Zm-17.457,10.112,1745.746,1011.2.251-.433L-200.858-820.164Zm87.287-50.56,1745.745,1011.2.251-.433L-113.571-870.724ZM-218.566-809.62,1527.179,201.58l.251-.433L-218.315-810.052Zm69.829-40.448,1745.745,1011.2.25-.433L-148.486-850.5Zm17.458-10.112L1614.467,151.02l.25-.433L-131.028-860.612ZM-288.4-769.172l1745.745,1011.2.251-.433L-288.145-769.6Zm-17.457,10.112L1439.892,252.14l.25-.433L-305.6-759.492Zm34.915-20.224,1745.746,1011.2.251-.433L-270.688-779.716Zm-52.372,30.336,1745.745,1011.2.251-.433L-323.06-749.38Zm87.287-50.56,1745.746,1011.2.25-.433L-235.773-799.94Zm296.777-171.9L1806.5,39.788l.251-.433L61-971.845ZM43.3-961.3,1789.041,49.9l.251-.433L43.546-961.733ZM-96.364-880.4,1649.381,130.8l.251-.433L-96.113-880.836ZM78.461-981.957l-.251.433L1823.956,29.676l.25-.433ZM25.838-951.188,1771.584,60.012l.251-.433L26.089-951.621Zm-69.83,40.449L1701.753,100.46l.25-.433L-43.741-911.172Zm-17.457,10.112L1684.3,110.572l.251-.433L-61.2-901.06Zm34.915-20.224L1719.211,90.348l.25-.433L-26.283-921.284Zm-733.213,424.7L986,515.052l.251-.433L-759.5-496.58ZM-9.077-930.964,1736.669,80.236l.251-.433L-8.827-931.4ZM-655-556.82,1090.743,454.38l.251-.433L-654.751-557.252Zm34.915-20.224,1745.745,1011.2.251-.433L-619.836-577.476Zm52.371-30.336L1178.03,403.82l.251-.433L-567.465-607.812Zm-17.457,10.112,1745.745,1011.2.251-.432L-584.921-597.7Zm-52.373,30.336L1108.2,444.268l.251-.433L-637.294-567.364Zm-87.287,50.56,1745.745,1011.2.251-.433L-724.581-516.8Zm-17.458,10.112L1003.456,504.94l.251-.433L-742.039-506.692Zm69.83-40.448,1745.745,1011.2.25-.433L-672.209-547.14Zm-34.915,20.224,1745.745,1011.2.251-.433L-707.124-526.916Zm261.862-151.681,1745.745,1011.2.251-.433L-445.262-678.6Zm-104.745,60.673,1745.745,1011.2.251-.433L-550.007-617.924ZM-393.14-708.5,1352.605,302.7l.25-.433L-392.889-708.932ZM-410.6-698.388l1745.745,1011.2.25-.433L-410.347-698.82Zm34.915-20.223,1745.745,1011.2.251-.433L-375.433-719.044Zm17.458-10.112L1387.52,282.476l.251-.433L-357.975-729.156Zm-139.66,80.9,1745.746,1011.2.25-.433L-497.635-648.26ZM-532.8-627.6,1212.946,383.6l.251-.433L-532.549-628.036Zm52.373-30.337L1265.318,353.26l.251-.433L-480.177-658.373Zm17.457-10.112,1745.745,1011.2.25-.433L-462.72-668.485Z" transform="translate(544.206 620.652)" fill="#80d1ff"/>
          <path id="Major_Y" data-name="Major Y" d="M87.379,1026.033l-1-1.731L1832.12,13.1l1,1.731ZM.092,975.473l-1-1.731L1744.833-37.458l1,1.731ZM-87.2,924.913l-1-1.731L1657.546-88.019l1,1.731Zm-87.287-50.56-1-1.731,1745.744-1011.2,1,1.731Zm-87.287-50.56-1-1.73,1745.744-1011.2,1,1.731Zm-87.287-50.56-1-1.73L1395.684-239.7l1,1.731Zm-87.287-50.56-1-1.731L1308.4-290.259l1,1.731Zm-87.288-50.56-1-1.731L1221.11-340.819l1,1.731Zm-87.287-50.56-1-1.731,1745.744-1011.2,1,1.731Zm-87.287-50.56-1-1.731,1745.743-1011.2,1,1.731Zm-87.287-50.56-1-1.73L959.248-492.5l1,1.731Zm-87.287-50.56-1-1.73L871.961-543.058l1,1.731Zm-87.288-50.559-1-1.731L784.673-593.618l1,1.731Zm-87.287-50.56-1-1.731L697.387-644.179l1,1.731Zm-87.287-50.56-1-1.731L610.1-694.738l1,1.731Zm-87.287-50.561-1-1.731L522.811-745.3l1,1.731Zm-87.287-50.56-1-1.73L435.525-795.858l1,1.731Zm-87.287-50.559-1-1.731L348.237-846.418l1,1.731Zm-87.287-50.56-1-1.731L260.95-896.978l1,1.731Zm-87.288-50.561-1-1.731L173.663-947.538l1,1.731Zm-87.287-50.559-1-1.731L86.375-998.1l1,1.731Z" transform="translate(553.123 626.033)" fill="#b7e3ff"/>
          <path id="Major_X" data-name="Major X" d="M86.377,1026.033-1659.368,14.833l1-1.731L87.379,1024.3Zm87.287-50.56L-1572.081-35.727l1-1.73L174.667,973.742Zm87.287-50.56L-1484.794-86.287l1-1.731L261.953,923.182Zm87.287-50.56-1745.745-1011.2,1-1.731L349.241,872.622Zm87.287-50.561-1745.745-1011.2,1-1.73L436.528,822.062Zm87.287-50.56-1745.745-1011.2,1-1.731L523.815,771.5ZM610.1,722.673l-1745.745-1011.2,1-1.731L611.1,720.942Zm87.287-50.56-1745.745-1011.2,1-1.731L698.39,670.382Zm87.287-50.56L-961.071-389.647l1-1.731L785.677,619.822Zm87.287-50.56L-873.783-440.207l1-1.731L872.964,569.262Zm87.287-50.561L-786.5-490.767l1-1.731L960.251,518.7Zm87.287-50.56L-699.209-541.327l1-1.731,1745.745,1011.2Zm87.287-50.559L-611.922-591.887l1-1.731,1745.745,1011.2Zm87.287-50.56L-524.635-642.447l1-1.731,1745.745,1011.2Zm87.287-50.561L-437.348-693.007l1-1.731L1309.4,316.461Zm87.288-50.559L-350.06-743.567l1-1.731L1396.687,265.9Zm87.287-50.561L-262.773-794.127l1-1.731,1745.745,1011.2Zm87.287-50.56L-175.486-844.687l1-1.731,1745.745,1011.2Zm87.287-50.559L-88.2-895.247l1-1.731,1745.745,1011.2Zm87.287-50.561L-.912-945.807l1-1.731L1745.836,63.662Zm87.287-50.56L86.375-996.367l1-1.731L1833.123,13.1Z" transform="translate(553.123 626.033)" fill="#b7e3ff"/>
        </g>
      </g>
      <rect id="Rectangle_7" data-name="Rectangle 7" width="1280" height="720" fill="url(#linear-gradient)"/>
      <circle id="Ellipse_1" data-name="Ellipse 1" cx="833.333" cy="833.333" r="833.333" transform="translate(-193.333 -473.333)" fill="url(#radial-gradient)"/>
    </g>
  </g>
</svg>
