<svg xmlns="http://www.w3.org/2000/svg" width="106" height="17.1" viewBox="0 0 106 17.1">
  <g id="Rating" transform="translate(-204 -3005)">
    <path id="Icon_material-star" data-name="Icon material-star" d="M12,16.743,17.562,20.1l-1.476-6.327L21,9.516l-6.471-.549L12,3,9.471,8.967,3,9.516l4.914,4.257L6.438,20.1Z" transform="translate(201 3002)" fill="#fb0"/>
    <path id="Icon_material-star-2" data-name="Icon material-star" d="M12,16.743,17.562,20.1l-1.476-6.327L21,9.516l-6.471-.549L12,3,9.471,8.967,3,9.516l4.914,4.257L6.438,20.1Z" transform="translate(223 3002)" fill="#fb0"/>
    <path id="Icon_material-star-3" data-name="Icon material-star" d="M12,16.743,17.562,20.1l-1.476-6.327L21,9.516l-6.471-.549L12,3,9.471,8.967,3,9.516l4.914,4.257L6.438,20.1Z" transform="translate(245 3002)" fill="#fb0"/>
    <path id="Icon_material-star-4" data-name="Icon material-star" d="M12,16.743,17.562,20.1l-1.476-6.327L21,9.516l-6.471-.549L12,3,9.471,8.967,3,9.516l4.914,4.257L6.438,20.1Z" transform="translate(267 3002)" fill="#fb0"/>
    <path id="Icon_material-star-5" data-name="Icon material-star" d="M12,16.743,17.562,20.1l-1.476-6.327L21,9.516l-6.471-.549L12,3,9.471,8.967,3,9.516l4.914,4.257L6.438,20.1Z" transform="translate(289 3002)" fill="#fb0"/>
  </g>
</svg>
