<svg xmlns="http://www.w3.org/2000/svg" xmlns:xlink="http://www.w3.org/1999/xlink" width="1280" height="650" viewBox="0 0 1280 650">
  <defs>
    <clipPath id="clip-path">
      <rect id="Rectangle_20" data-name="Rectangle 20" width="1280" height="650" transform="translate(0 1012)" fill="#fff" stroke="#707070" stroke-width="1"/>
    </clipPath>
    <linearGradient id="linear-gradient" x1="0.5" y1="1.393" x2="0.5" y2="0.393" gradientUnits="objectBoundingBox">
      <stop offset="0" stop-color="#1a1a1a"/>
      <stop offset="1" stop-color="#1a1a1a" stop-opacity="0"/>
    </linearGradient>
    <radialGradient id="radial-gradient" cx="0.5" cy="0.5" r="0.5" gradientUnits="objectBoundingBox">
      <stop offset="0" stop-color="#1a1a1a" stop-opacity="0"/>
      <stop offset="1" stop-color="#1a1a1a"/>
    </radialGradient>
  </defs>
  <g id="Section_BG" data-name="Section BG" transform="translate(0 -1012)" clip-path="url(#clip-path)">
    <g id="Group_16" data-name="Group 16" transform="translate(151.972 1187.023)">
      <rect id="Rectangle_17" data-name="Rectangle 17" width="1293" height="728" transform="translate(-94.972 -232.024)" fill="#1a1a1a"/>
      <path id="Path_68" data-name="Path 68" d="M1584.822,191S1344.188,327.817,1381.1,422.221s-71.1,198.384-222.86,224.38S893,789.86,893,789.86m12.476,0c4.272-6.523,109.4-115.008,251.152-140.053,2.36-.417,4.738-.77,7.122-1.136,145.4-22.358,249.922-115.342,220.687-213.624-22.1-74.28,94.542-164.947,159.21-209.442,25.231-17.36,41.176-26.739,41.176-26.739M917.952,789.86c8.545-13.048,108.973-116.434,244.344-138.168,2.3-.37,4.63-.635,6.959-.95,139-18.788,240.307-100.962,218.515-202.867-17.017-79.572,94.061-168.881,156.344-213.539,25.99-18.635,40.709-27.6,40.709-27.6M930.428,789.86c12.817-19.571,108.572-117.8,237.535-136.284,2.247-.322,4.522-.5,6.8-.764,132.569-15.294,230.947-86.763,216.342-192.112-11.785-85.007,93.516-172.933,153.477-217.636,26.741-19.937,40.243-28.464,40.243-28.464M942.9,789.86c17.091-26.1,108.2-119.091,230.727-134.4,2.191-.273,4.412-.368,6.635-.578,126.1-11.884,221.832-72.676,214.168-181.355-6.384-90.532,92.913-177.085,150.611-221.733,27.482-21.266,39.777-29.327,39.777-29.327M955.381,789.86c21.363-32.619,107.86-120.308,223.919-132.516,2.135-.225,4.3-.236,6.472-.392,119.59-8.567,212.943-58.645,212-170.6-.812-96.1,92.253-181.325,147.745-225.83,28.208-22.623,39.311-30.19,39.311-30.19M967.856,789.86c25.636-39.143,107.548-121.437,217.111-130.632,2.081-.175,4.191-.106,6.309-.206,113.049-5.353,204.248-44.628,209.823-159.842,4.92-101.687,91.539-185.641,144.879-229.927,28.916-24.008,38.844-31.051,38.844-31.051M980.333,789.86c29.908-45.666,107.266-122.472,210.3-128.748,2.026-.124,4.079.024,6.146-.02,106.475-2.255,195.716-30.594,207.651-149.086,10.8-107.255,90.777-190.025,142.012-234.024,29.6-25.423,38.378-31.914,38.378-31.914M992.808,789.86c34.181-52.19,107.01-123.4,203.495-126.863,1.973-.071,3.966.152,5.984.166,99.874.716,187.319-16.522,205.478-138.329,16.815-112.79,89.967-194.465,139.146-238.121,30.266-26.868,37.912-32.776,37.912-32.776M1005.285,789.86c38.453-58.714,106.775-124.21,196.686-124.98,1.92-.016,3.854.278,5.822.353,93.252,3.549,179.028-2.4,203.3-127.573,22.941-118.28,89.114-198.954,136.279-242.218,30.9-28.344,37.445-33.639,37.445-33.639M1017.76,789.86c42.726-65.237,106.557-124.89,189.878-123.1,1.867.04,3.741.4,5.659.539,86.621,6.231,170.822,11.772,201.133-116.816C1443.593,426.77,1502.647,347,1547.843,304.172c31.5-29.853,36.979-34.5,36.979-34.5M1030.237,789.86c47-71.762,106.342-125.429,183.069-121.212,1.815.1,3.628.521,5.5.725,79.992,8.749,162.682,26,198.959-106.06,35.464-129.1,87.28-208.051,130.547-250.413,32.068-31.4,36.512-35.364,36.512-35.364M1042.713,789.86c51.272-78.285,106.122-125.813,176.262-119.328,1.761.163,3.516.637,5.334.911,73.384,11.095,154.592,40.291,196.787-95.3,41.832-134.428,86.3-212.647,127.681-254.51,32.593-32.976,36.046-36.227,36.046-36.227M1055.189,789.86c55.544-84.809,105.87-126.033,169.453-117.443,1.708.231,3.4.746,5.171,1.1,66.826,13.261,146.541,54.633,194.614-84.547,48.254-139.7,85.292-217.268,124.814-258.607,33.071-34.591,35.58-37.089,35.58-37.089M1067.665,789.86c59.817-91.333,105.561-126.08,162.645-115.559,1.652.3,3.3.851,5.009,1.283,60.351,15.246,138.517,69.027,192.442-73.791,54.719-144.924,84.24-221.906,121.947-262.7,33.5-36.246,35.114-37.952,35.114-37.952M1080.141,789.86c64.089-97.856,105.15-125.955,155.836-113.675,1.6.386,3.192.946,4.847,1.47,54.008,17.056,130.516,83.468,190.269-63.035,61.22-150.1,83.155-226.559,119.082-266.8,33.871-37.94,34.647-38.814,34.647-38.814M1092.617,789.86c68.362-104.38,104.579-125.668,149.029-111.791,47.566,14.849,125.032,104.605,192.781-50.623s80.27-236.587,150.4-310.575m-484,472.989c68.875-101.045,106.162-119.083,150.567-106.147,47.436,13.845,123.8,95.673,188.337-55.924s73.373-229.753,145.1-304.76m-475.8,466.832c69.387-97.711,107.746-112.5,152.105-100.5,47.306,12.84,122.562,86.741,183.893-61.226s66.476-222.919,139.8-298.946M1117.227,789.86c69.9-94.375,109.329-105.914,153.643-94.86,47.176,11.836,121.328,77.809,179.45-66.527s59.579-216.085,134.5-293.131M1125.431,789.86c70.412-91.04,110.912-99.33,155.181-89.216,47.046,10.831,120.093,68.876,175.007-71.83s52.682-209.25,129.2-287.315M1133.633,789.86c70.926-87.706,112.5-92.746,156.72-83.572,46.917,9.827,118.859,59.945,170.563-77.131s45.785-202.416,123.906-281.5m-442.985,442.2c71.438-84.371,114.08-86.161,158.258-77.929,46.786,8.823,117.623,51.012,166.119-82.433s38.889-195.582,118.608-275.687M1150.041,789.86c71.951-81.035,115.663-79.577,159.8-72.285,46.656,7.818,116.389,42.081,161.675-87.734s31.992-188.748,113.31-269.872M1158.244,789.86c72.464-77.7,117.247-72.992,161.334-66.641,46.526,6.814,115.154,33.148,157.232-93.036s25.1-181.914,108.012-264.058M1166.448,789.86c72.976-74.366,118.83-66.408,162.872-61,46.4,5.809,113.92,24.216,152.789-98.338s18.2-175.079,102.714-258.242M1174.651,789.86c73.489-71.031,120.413-59.824,164.41-55.354,46.266,4.8,112.686,15.284,148.346-103.639s11.3-168.245,97.416-252.427M1182.855,789.86c74-67.7,122-53.239,165.948-49.71,46.136,3.8,111.45,6.352,143.9-108.941s4.4-161.411,92.117-246.613M1191.057,789.86c74.515-64.361,123.581-46.655,167.487-44.066,46.007,2.8,110.216-2.581,139.458-114.242s-2.493-154.577,86.819-240.8M1199.261,789.86c75.027-61.027,125.164-40.07,169.025-38.423,45.876,1.792,108.981-11.512,135.014-119.544s-9.388-147.743,81.522-234.984M1207.464,789.86c75.54-57.691,126.748-33.486,170.563-32.779,45.747.788,107.747-20.445,130.571-124.846s-16.285-140.909,76.224-229.169M1215.668,789.86c76.052-54.356,128.331-26.9,172.1-27.135,45.616-.217,106.512-29.377,126.127-130.147s-23.183-134.074,70.926-223.354M1223.872,789.86c76.565-51.022,129.914-20.318,173.639-21.492,45.486-1.221,105.277-38.309,121.684-135.449s-30.079-127.24,65.627-217.54M1237.971,789.86c71.78-47.833,128.344-19.048,169.337-20.148a104.1,104.1,0,0,0,48.533-14.075c29.807-17.7,57.372-58.469,67.456-118.173,15.382-91.069-28.2-127.936,61.526-212.592M1252.07,789.86c67-44.644,126.775-17.778,165.034-18.805,13.708-.369,32.72-4.459,47.335-13.136,27.82-16.518,53.547-60.187,62.958-115.91,14.356-85-26.319-128.633,57.424-207.645M1266.17,789.86c62.209-41.455,125.206-16.508,160.732-17.462,12.729-.342,32.566-4.14,46.136-12.2,25.833-15.339,49.722-61.9,58.461-113.647,13.331-78.927-24.439-129.33,53.322-202.7M1280.27,789.86c57.424-38.266,123.636-15.238,156.429-16.119,11.75-.315,32.41-3.822,44.938-11.26,23.846-14.158,45.9-63.621,53.965-111.384,12.305-72.855-22.559-130.026,49.22-197.75M1294.369,789.86c52.639-35.077,122.066-13.968,152.127-14.776,10.77-.289,32.256-3.5,43.739-10.321,21.858-12.979,42.072-65.338,49.468-109.121,11.279-66.784-20.68-130.723,45.119-192.8M1308.469,789.86c47.854-31.888,120.5-12.7,147.825-13.432,9.791-.263,32.1-3.185,42.541-9.383,19.871-11.8,38.248-67.055,44.97-106.858,10.254-60.713-18.8-131.42,41.017-187.857M1322.569,789.86c43.068-28.7,118.927-11.429,143.522-12.089,8.812-.236,31.947-2.866,41.342-8.445,17.884-10.619,34.423-68.773,40.473-104.6,9.229-54.642-16.92-132.116,36.915-182.91M1336.669,789.86c38.282-25.511,117.357-10.159,139.22-10.746,7.833-.21,31.792-2.548,40.143-7.507,15.9-9.439,30.6-70.49,35.977-102.332,8.2-48.57-15.04-132.812,32.813-177.962M1350.768,789.86c33.5-22.322,115.788-8.889,134.917-9.4,6.854-.184,31.638-2.23,38.945-6.569,13.91-8.259,26.773-72.207,31.479-100.069,7.178-42.5-13.159-133.509,28.712-173.015M1364.868,789.86c28.712-19.133,114.218-7.619,130.615-8.059,5.875-.158,31.484-1.911,37.747-5.63,11.923-7.079,22.949-73.924,26.982-97.806,6.153-36.427-11.279-134.206,24.61-168.068M1378.968,789.86c23.926-15.944,112.648-6.349,126.312-6.716,4.9-.131,31.328-1.592,36.548-4.692,9.936-5.9,19.124-75.642,22.485-95.543,5.128-30.356-9.4-134.9,20.509-163.12M1393.067,789.86c19.141-12.755,111.08-5.079,122.01-5.373,3.917-.105,31.174-1.274,35.35-3.754,7.949-4.719,15.3-77.359,17.988-93.28,4.1-24.284-7.52-135.6,16.407-158.173M1407.167,789.86c14.356-9.566,109.51-3.809,117.708-4.03,2.937-.079,31.019-.955,34.151-2.815,5.961-3.539,11.474-79.076,13.491-91.017,3.077-18.214-5.64-136.3,12.305-153.227M1421.266,789.86c9.57-6.378,107.94-2.54,113.406-2.686,1.958-.053,30.865-.637,32.953-1.877,3.974-2.36,7.649-80.794,8.994-88.754,2.051-12.142-3.76-136.992,8.2-148.28m-149.456,241.6c4.785-3.189,106.37-1.27,109.1-1.343.979-.026,30.711-.319,31.754-.938,1.987-1.18,3.825-82.511,4.5-86.491,1.025-6.071-1.88-137.688,4.1-143.332m-135.357,232.1h135.357V567.247" transform="translate(-386.091 -294.136)" fill="none" stroke="#b4b4b4" stroke-width="1.5"/>
      <rect id="Rectangle_18" data-name="Rectangle 18" width="812" height="599" transform="translate(386.028 -103.024)" fill="url(#linear-gradient)"/>
      <circle id="Ellipse_3" data-name="Ellipse 3" cx="842" cy="842" r="842" transform="translate(-289.972 -710.023)" fill="url(#radial-gradient)"/>
      <rect id="Rectangle_19" data-name="Rectangle 19" width="1293" height="728" transform="translate(-94.972 -232.024)" fill="none"/>
    </g>
  </g>
</svg>
