<svg xmlns="http://www.w3.org/2000/svg" xmlns:xlink="http://www.w3.org/1999/xlink" width="593.175" height="574.896" viewBox="0 0 593.175 574.896">
  <defs>
    <linearGradient id="linear-gradient" x1="0.5" x2="0.5" y2="1" gradientUnits="objectBoundingBox">
      <stop offset="0" stop-color="#b7e3ff"/>
      <stop offset="1" stop-color="#1a1a1a"/>
    </linearGradient>
    <linearGradient id="linear-gradient-2" x1="0.5" x2="0.5" y2="1" gradientUnits="objectBoundingBox">
      <stop offset="0" stop-color="#009ddd"/>
      <stop offset="1" stop-color="#1a1a1a"/>
    </linearGradient>
  </defs>
  <g id="Visual_03" data-name="Visual 03" transform="translate(93.175 0.017)">
    <rect id="Rectangle_24" data-name="Rectangle 24" width="500" height="500" transform="translate(0 -0.017)" fill="#1a1a1a"/>
    <g id="Group_19" data-name="Group 19" transform="translate(-92.425 5.499)" opacity="0.1">
      <path id="Path_69" data-name="Path 69" d="M-1777.557,427.155V614.631l162.359,93.738,162.359-93.738V427.155L-1615.2,333.417Z" transform="translate(1883.609 -227.365)" opacity="0.75" fill="url(#linear-gradient)"/>
      <path id="Path_70" data-name="Path 70" d="M-1936.656,268.056V455.532l162.358,93.738,162.359-93.738V268.056L-1774.3,174.318Z" transform="translate(1936.656 -174.318)" fill="none" stroke="#fff" stroke-width="1.5" stroke-dasharray="18.75 9.375" opacity="0.75"/>
      <path id="Path_71" data-name="Path 71" d="M-1910.139,559.738V747.213l162.358,93.738,162.359-93.738V559.738L-1747.781,466Z" transform="translate(1927.815 -271.571)" fill="url(#linear-gradient-2)"/>
      <g id="Group_18" data-name="Group 18" transform="translate(319.117 141.191)">
        <g id="Group_17" data-name="Group 17">
          <path id="Path_72" data-name="Path 72" d="M-1453.374,399.5v-2.136h1.056v3.24h-5.6v-1.1Z" transform="translate(1457.917 -389.879)"/>
          <path id="Path_73" data-name="Path 73" d="M-1452.073,391.2a2.053,2.053,0,0,1,.612,1.5,2.039,2.039,0,0,1-.612,1.5,2.038,2.038,0,0,1-1.5.612,2.04,2.04,0,0,1-1.5-.612,2.042,2.042,0,0,1-.612-1.5,2.055,2.055,0,0,1,.612-1.5,2.033,2.033,0,0,1,1.5-.616A2.031,2.031,0,0,1-1452.073,391.2Zm-.708,2.276a1.04,1.04,0,0,0,.312-.772,1.053,1.053,0,0,0-.312-.776,1.073,1.073,0,0,0-.792-.312,1.073,1.073,0,0,0-.792.312,1.053,1.053,0,0,0-.311.776,1.04,1.04,0,0,0,.311.772,1.08,1.08,0,0,0,.792.308A1.081,1.081,0,0,0-1452.781,393.48Z" transform="translate(1457.173 -387.618)"/>
          <path id="Path_74" data-name="Path 74" d="M-1454.868,387.349a1.077,1.077,0,0,1-.577-.476,1.452,1.452,0,0,1-.192-.74h1.152a1.216,1.216,0,0,0,.192.843.916.916,0,0,0,.824.373h1.912v1.032h-4v-1.032Z" transform="translate(1457.157 -386.133)"/>
        </g>
      </g>
      <g id="Path_75" data-name="Path 75" transform="translate(1851.125 -264.875)" fill="none" stroke-dasharray="18.75 9.375" opacity="0.75">
        <path d="M-1680.129,502.16V614.645l97.415,56.243,97.415-56.243V502.16l-97.415-56.243Z" stroke="none"/>
        <path d="M -1582.7138671875 445.91748046875 C -1582.7138671875 445.91748046875 -1566.475952148438 455.29248046875 -1566.475952148438 455.29248046875 L -1567.225952148438 456.5914916992188 L -1583.4638671875 447.2164916992188 L -1582.7138671875 445.91748046875 Z M -1558.35693359375 459.97998046875 L -1542.118896484375 469.35498046875 L -1542.868896484375 470.6539916992188 L -1559.10693359375 461.2789916992188 L -1558.35693359375 459.97998046875 Z M -1534 474.04248046875 C -1534 474.04248046875 -1532.987548828125 474.626953125 -1531.468383789062 475.5040893554688 L -1531.454467773438 475.5121459960938 C -1531.43359375 475.524169921875 -1531.412963867188 475.5360717773438 -1531.391967773438 475.5482177734375 L -1531.390014648438 475.54931640625 C -1531.372314453125 475.5595092773438 -1531.35498046875 475.5695190429688 -1531.337158203125 475.579833984375 L -1531.335571289062 475.5807495117188 C -1531.332153320312 475.5827026367188 -1531.329345703125 475.5843505859375 -1531.325927734375 475.5863647460938 L -1531.3115234375 475.5946655273438 C -1531.302368164062 475.5999145507812 -1531.29345703125 475.6051025390625 -1531.284301757812 475.6103515625 L -1531.280883789062 475.6123657226562 C -1531.269409179688 475.6189575195312 -1531.2578125 475.6256713867188 -1531.246337890625 475.63232421875 L -1531.24365234375 475.6338500976562 C -1531.2275390625 475.6431274414062 -1531.210693359375 475.65283203125 -1531.194458007812 475.6621704101562 L -1531.129272460938 475.6998291015625 C -1531.124633789062 475.7025146484375 -1531.119873046875 475.7052612304688 -1531.115234375 475.7079467773438 L -1531.088745117188 475.7232666015625 C -1531.087158203125 475.7241821289062 -1531.085815429688 475.7249145507812 -1531.084350585938 475.725830078125 L -1531.07177734375 475.7330322265625 C -1531.06982421875 475.7341918945312 -1531.06884765625 475.7347412109375 -1531.06689453125 475.7359008789062 L -1531.050048828125 475.7456665039062 C -1531.050048828125 475.7456665039062 -1531.049926757812 475.7456665039062 -1531.049926757812 475.7456665039062 L -1530.89892578125 475.8328247070312 C -1530.898193359375 475.8333129882812 -1530.897583007812 475.8336181640625 -1530.896728515625 475.8341064453125 L -1517.761962890625 483.41748046875 L -1518.511962890625 484.716552734375 L -1534.75 475.3414916992188 L -1534 474.04248046875 Z M -1509.642944335938 488.10498046875 L -1493.405029296875 497.47998046875 L -1494.155029296875 498.779052734375 L -1510.392944335938 489.404052734375 L -1509.642944335938 488.10498046875 Z M -1486.798706054688 502.1748046875 L -1485.298706054688 502.1748046875 C -1485.298706054688 502.1748046875 -1485.298706054688 520.9248046875 -1485.298706054688 520.9248046875 L -1486.798706054688 520.9248046875 L -1486.798706054688 502.1748046875 Z M -1486.798706054688 530.2998046875 L -1485.298706054688 530.2998046875 C -1485.298706054688 530.2998046875 -1485.298706054688 549.0498046875 -1485.298706054688 549.0498046875 L -1486.798706054688 549.0498046875 L -1486.798706054688 530.2998046875 Z M -1486.798706054688 558.4248046875 L -1485.298706054688 558.4248046875 C -1485.298706054688 558.4248046875 -1485.298706054688 577.1748046875 -1485.298706054688 577.1748046875 L -1486.798706054688 577.1748046875 L -1486.798706054688 558.4248046875 Z M -1486.798706054688 586.5498046875 L -1485.298706054688 586.5498046875 C -1485.298706054688 586.5498046875 -1485.298706054688 605.2998046875 -1485.298706054688 605.2998046875 L -1486.798706054688 605.2998046875 L -1486.798706054688 586.5498046875 Z M -1486.07421875 613.361083984375 L -1485.32421875 614.6600952148438 C -1485.32421875 614.6600952148438 -1494.034912109375 619.689208984375 -1498.696411132812 622.3805541992188 L -1498.696899414062 622.380859375 C -1498.70703125 622.3866577148438 -1498.717041015625 622.3924560546875 -1498.727172851562 622.3983154296875 L -1498.7412109375 622.4063720703125 C -1498.743530273438 622.40771484375 -1498.744873046875 622.4085083007812 -1498.747192382812 622.4098510742188 L -1498.7548828125 622.414306640625 C -1498.770263671875 622.4232177734375 -1498.785522460938 622.4320068359375 -1498.80078125 622.4407958984375 L -1498.8115234375 622.447021484375 C -1498.820434570312 622.4521484375 -1498.828491210938 622.456787109375 -1498.837280273438 622.4618530273438 L -1501.562133789062 624.0350952148438 L -1502.312133789062 622.736083984375 L -1486.07421875 613.361083984375 Z M -1510.43115234375 627.4235229492188 L -1509.68115234375 628.7225952148438 L -1518.683959960938 633.9202880859375 C -1518.686889648438 633.9219970703125 -1518.691284179688 633.924560546875 -1518.694213867188 633.92626953125 L -1518.709594726562 633.93505859375 C -1518.719848632812 633.9410400390625 -1518.729858398438 633.94677734375 -1518.740234375 633.9527587890625 L -1518.760375976562 633.9644775390625 C -1518.763427734375 633.9661865234375 -1518.766723632812 633.9680786132812 -1518.769653320312 633.9697875976562 L -1518.775512695312 633.97314453125 C -1518.779907226562 633.9757080078125 -1518.7841796875 633.9781494140625 -1518.78857421875 633.980712890625 L -1518.802490234375 633.98876953125 C -1518.815307617188 633.9961547851562 -1518.828491210938 634.0037841796875 -1518.841186523438 634.0111083984375 L -1518.847900390625 634.0149536132812 C -1518.854736328125 634.0189208984375 -1518.860717773438 634.0223388671875 -1518.867553710938 634.0263671875 L -1518.868530273438 634.02685546875 C -1518.873901367188 634.030029296875 -1518.87841796875 634.0325927734375 -1518.8837890625 634.0357055664062 L -1518.949829101562 634.0738525390625 C -1518.976806640625 634.0894165039062 -1519.004028320312 634.1051025390625 -1519.031005859375 634.1206665039062 L -1519.035034179688 634.1229858398438 C -1519.06298828125 634.13916015625 -1519.090698242188 634.1551513671875 -1519.118530273438 634.1712646484375 L -1519.135986328125 634.1812744140625 C -1519.164306640625 634.1976318359375 -1519.192260742188 634.2138061523438 -1519.220703125 634.230224609375 L -1519.221069335938 634.2304077148438 C -1519.249877929688 634.2470703125 -1519.279052734375 634.263916015625 -1519.307861328125 634.280517578125 L -1519.321899414062 634.2886352539062 C -1522.8154296875 636.3056640625 -1525.919189453125 638.0975341796875 -1525.919189453125 638.0975341796875 L -1526.669189453125 636.7985229492188 L -1510.43115234375 627.4235229492188 Z M -1534.788208007812 641.4860229492188 L -1534.038208007812 642.7850341796875 C -1534.038208007812 642.7850341796875 -1534.609008789062 643.1146240234375 -1535.5361328125 643.64990234375 L -1535.537475585938 643.650634765625 C -1535.575439453125 643.672607421875 -1535.614013671875 643.69482421875 -1535.653198242188 643.717529296875 L -1535.656127929688 643.7191772460938 C -1535.690063476562 643.73876953125 -1535.725219726562 643.759033203125 -1535.760009765625 643.7791748046875 L -1535.76171875 643.7801513671875 C -1535.7646484375 643.7818603515625 -1535.767211914062 643.7833251953125 -1535.770141601562 643.7850341796875 L -1535.781860351562 643.791748046875 C -1535.78955078125 643.7962646484375 -1535.797119140625 643.800537109375 -1535.804809570312 643.8050537109375 L -1535.808349609375 643.8070678710938 C -1535.817749023438 643.8125 -1535.827026367188 643.81787109375 -1535.836547851562 643.8233642578125 L -1535.83984375 643.8251953125 C -1535.8486328125 643.830322265625 -1535.857543945312 643.83544921875 -1535.866333007812 643.840576171875 L -1535.912963867188 643.867431640625 C -1535.917236328125 643.8699951171875 -1535.9208984375 643.8720703125 -1535.92529296875 643.8745727539062 L -1535.939208984375 643.882568359375 C -1535.9404296875 643.8833618164062 -1535.942138671875 643.88427734375 -1535.943481445312 643.8851318359375 L -1550.276123046875 652.1600341796875 L -1551.026123046875 650.8609619140625 L -1534.788208007812 641.4860229492188 Z M -1559.145141601562 655.5484619140625 L -1558.395141601562 656.8475341796875 C -1558.395141601562 656.8475341796875 -1574.633178710938 666.2225341796875 -1574.633178710938 666.2225341796875 L -1575.383178710938 664.9234619140625 L -1559.145141601562 655.5484619140625 Z M -1598.240112304688 660.1918334960938 L -1582.002075195312 669.5668334960938 L -1582.752075195312 670.8658447265625 C -1582.752075195312 670.8658447265625 -1598.990112304688 661.4908447265625 -1598.990112304688 661.4908447265625 L -1598.240112304688 660.1918334960938 Z M -1622.597045898438 646.1293334960938 L -1606.359130859375 655.5043334960938 L -1607.109130859375 656.8033447265625 C -1607.109130859375 656.8033447265625 -1611.10302734375 654.4974365234375 -1615.129516601562 652.1727294921875 L -1615.136474609375 652.168701171875 C -1615.14892578125 652.16162109375 -1615.160766601562 652.1547241210938 -1615.173217773438 652.1475830078125 L -1615.189331054688 652.1382446289062 C -1615.191284179688 652.1370849609375 -1615.193725585938 652.1357421875 -1615.195678710938 652.1345825195312 L -1623.347045898438 647.4283447265625 L -1622.597045898438 646.1293334960938 Z M -1646.9541015625 632.06689453125 L -1630.716064453125 641.4418334960938 L -1631.466064453125 642.7408447265625 L -1641.156982421875 637.1458129882812 C -1641.157958984375 637.145263671875 -1641.158203125 637.1451416015625 -1641.1591796875 637.14453125 L -1641.215209960938 637.1122436523438 C -1641.221435546875 637.1085815429688 -1641.2275390625 637.1051025390625 -1641.23388671875 637.1014404296875 L -1641.244750976562 637.0950927734375 C -1641.254516601562 637.0894775390625 -1641.265380859375 637.083251953125 -1641.275024414062 637.07763671875 L -1641.296752929688 637.0651245117188 C -1641.298217773438 637.0642700195312 -1641.300170898438 637.0631713867188 -1641.301513671875 637.0623779296875 L -1641.313354492188 637.0555419921875 C -1641.318237304688 637.052734375 -1641.323974609375 637.0494384765625 -1641.328857421875 637.046630859375 L -1641.341552734375 637.039306640625 C -1641.343505859375 637.0381469726562 -1641.345825195312 637.0367431640625 -1641.347778320312 637.03564453125 L -1641.359985351562 637.028564453125 C -1641.364379882812 637.026123046875 -1641.369995117188 637.0228271484375 -1641.374389648438 637.020263671875 L -1641.384155273438 637.0146484375 C -1641.396728515625 637.0073852539062 -1641.4091796875 637.000244140625 -1641.421752929688 636.9929809570312 L -1641.430053710938 636.9881591796875 C -1641.434936523438 636.9853515625 -1641.43994140625 636.982421875 -1641.44482421875 636.9796142578125 L -1641.45654296875 636.9728393554688 C -1641.458984375 636.971435546875 -1641.460693359375 636.970458984375 -1641.463134765625 636.9690551757812 L -1641.480224609375 636.9591674804688 C -1641.484130859375 636.9569091796875 -1641.487548828125 636.9549560546875 -1641.491455078125 636.9527587890625 L -1641.500610351562 636.9473876953125 C -1641.51904296875 636.936767578125 -1641.5361328125 636.9268798828125 -1641.554443359375 636.9163208007812 L -1641.568237304688 636.9083862304688 C -1641.5966796875 636.8919677734375 -1641.624877929688 636.8756713867188 -1641.6533203125 636.8592529296875 L -1641.66064453125 636.8550415039062 C -1641.72021484375 636.8206176757812 -1641.779907226562 636.7861938476562 -1641.839111328125 636.751953125 L -1641.844360351562 636.7489013671875 C -1645.025512695312 634.912353515625 -1647.703979492188 633.3658447265625 -1647.703979492188 633.3658447265625 L -1646.9541015625 632.06689453125 Z M -1671.31103515625 618.00439453125 L -1655.072998046875 627.37939453125 L -1655.822998046875 628.6783447265625 L -1656.122192382812 628.5056762695312 C -1656.122192382812 628.5056762695312 -1656.122436523438 628.5054931640625 -1656.122436523438 628.5054931640625 L -1656.136108398438 628.49755859375 C -1656.136474609375 628.4974365234375 -1656.136840820312 628.4971923828125 -1656.137084960938 628.4970703125 L -1656.151000976562 628.489013671875 C -1656.151000976562 628.489013671875 -1656.151123046875 628.4889526367188 -1656.151123046875 628.4889526367188 L -1656.18017578125 628.47216796875 C -1656.181518554688 628.4713745117188 -1656.182983398438 628.4705810546875 -1656.184448242188 628.4697265625 L -1656.304443359375 628.400390625 C -1656.304443359375 628.400390625 -1656.3046875 628.4002685546875 -1656.3046875 628.4002685546875 L -1656.31298828125 628.3955078125 C -1656.316650390625 628.3933715820312 -1656.320068359375 628.3914184570312 -1656.32373046875 628.3892822265625 L -1656.340087890625 628.3798828125 C -1656.340209960938 628.3797607421875 -1656.34033203125 628.3797607421875 -1656.340454101562 628.379638671875 L -1656.375610351562 628.3593139648438 C -1656.376831054688 628.358642578125 -1656.377685546875 628.358154296875 -1656.37890625 628.357421875 L -1656.385498046875 628.3536376953125 C -1656.389038085938 628.3515625 -1656.392578125 628.3494873046875 -1656.396240234375 628.347412109375 L -1656.4052734375 628.3421630859375 C -1656.409912109375 628.3395385742188 -1656.414672851562 628.3367919921875 -1656.419311523438 628.3341064453125 L -1656.421630859375 628.332763671875 C -1656.424072265625 628.331298828125 -1656.426147460938 628.3302001953125 -1656.428588867188 628.3287353515625 L -1656.544921875 628.2615966796875 C -1656.546752929688 628.2605590820312 -1656.548706054688 628.2593994140625 -1656.550537109375 628.2583618164062 L -1656.556396484375 628.2550048828125 C -1656.557006835938 628.254638671875 -1656.557373046875 628.25439453125 -1656.557983398438 628.2540283203125 L -1656.566528320312 628.2491455078125 C -1656.571899414062 628.2460327148438 -1656.577026367188 628.2430419921875 -1656.582397460938 628.239990234375 L -1656.5869140625 628.2374267578125 C -1656.592041015625 628.234375 -1656.59765625 628.2311401367188 -1656.602905273438 628.2281494140625 L -1656.610473632812 628.2237548828125 C -1656.611694335938 628.2230224609375 -1656.612915039062 628.2222900390625 -1656.614135742188 628.2216796875 L -1656.61865234375 628.218994140625 C -1656.628784179688 628.2131958007812 -1656.638671875 628.2073974609375 -1656.649047851562 628.2015380859375 L -1656.652099609375 628.19970703125 C -1656.659057617188 628.1956787109375 -1656.665771484375 628.1917724609375 -1656.672973632812 628.1876831054688 L -1656.673461914062 628.1873779296875 C -1656.67822265625 628.1846923828125 -1656.6826171875 628.18212890625 -1656.687377929688 628.1793212890625 L -1656.700317382812 628.171875 C -1656.729125976562 628.1552124023438 -1656.7587890625 628.1381225585938 -1656.788818359375 628.1207885742188 L -1656.79150390625 628.1192626953125 C -1656.822265625 628.1014404296875 -1656.854370117188 628.0830078125 -1656.886474609375 628.064453125 L -1656.890380859375 628.0621337890625 C -1660.504638671875 625.9754638671875 -1672.06103515625 619.3033447265625 -1672.06103515625 619.3033447265625 L -1671.31103515625 618.00439453125 Z M -1680.12890625 595.8363647460938 L -1678.62890625 595.8363647460938 L -1678.62890625 614.58642578125 L -1680.12890625 614.58642578125 L -1680.12890625 595.8363647460938 Z M -1680.12890625 567.7113647460938 L -1678.62890625 567.7113647460938 L -1678.62890625 586.4613647460938 L -1680.12890625 586.4613647460938 L -1680.12890625 567.7113647460938 Z M -1680.12890625 539.5863647460938 L -1678.62890625 539.5863647460938 L -1678.62890625 558.3363647460938 L -1680.12890625 558.3363647460938 L -1680.12890625 539.5863647460938 Z M -1680.12890625 511.4613647460938 L -1678.62890625 511.4613647460938 L -1678.62890625 530.2113647460938 L -1680.12890625 530.2113647460938 L -1680.12890625 511.4613647460938 Z M -1663.827026367188 492.748291015625 L -1663.077026367188 494.0473022460938 L -1679.315063476562 503.4223022460938 L -1680.065063476562 502.123291015625 C -1680.065063476562 502.123291015625 -1663.827026367188 492.748291015625 -1663.827026367188 492.748291015625 Z M -1639.470092773438 478.6857299804688 L -1638.720092773438 479.9848022460938 L -1654.958129882812 489.3598022460938 L -1655.708129882812 488.060791015625 C -1655.708129882812 488.060791015625 -1652.6015625 486.2672119140625 -1649.105590820312 484.2488403320312 L -1649.101440429688 484.2464599609375 C -1649.0400390625 484.2109375 -1648.978393554688 484.1753540039062 -1648.916625976562 484.1397094726562 L -1648.91455078125 484.1384887695312 C -1648.885131835938 484.1215209960938 -1648.855346679688 484.1043090820312 -1648.825805664062 484.0872802734375 L -1648.81689453125 484.0820922851562 C -1648.804077148438 484.0747680664062 -1648.791748046875 484.067626953125 -1648.779052734375 484.0602416992188 L -1648.769409179688 484.0547485351562 C -1648.765014648438 484.0521850585938 -1648.760131835938 484.0493774414062 -1648.755737304688 484.0468139648438 L -1648.67041015625 483.99755859375 C -1648.6689453125 483.9967041015625 -1648.666870117188 483.9955444335938 -1648.665405273438 483.9946899414062 L -1639.470092773438 478.6857299804688 Z M -1615.113159179688 464.6232299804688 L -1614.363159179688 465.9222412109375 L -1630.60107421875 475.2972412109375 L -1631.35107421875 473.9982299804688 C -1631.35107421875 473.9982299804688 -1615.113159179688 464.6232299804688 -1615.113159179688 464.6232299804688 Z M -1590.756225585938 450.5607299804688 L -1590.006225585938 451.8597412109375 L -1606.244140625 461.2347412109375 L -1606.994140625 459.9357299804688 C -1606.994140625 459.9357299804688 -1602.683715820312 457.4470825195312 -1598.504638671875 455.0343017578125 L -1598.485473632812 455.0232543945312 C -1598.457763671875 455.0072021484375 -1598.429809570312 454.9910888671875 -1598.402099609375 454.97509765625 L -1598.393432617188 454.9700927734375 C -1598.380126953125 454.96240234375 -1598.36767578125 454.9552001953125 -1598.354370117188 454.947509765625 L -1598.35107421875 454.9456176757812 C -1598.338745117188 454.9384765625 -1598.325561523438 454.930908203125 -1598.313232421875 454.9237670898438 L -1598.293701171875 454.9124755859375 C -1598.282348632812 454.9059448242188 -1598.270874023438 454.8993530273438 -1598.259521484375 454.892822265625 L -1598.255493164062 454.8904418945312 C -1598.2431640625 454.88330078125 -1598.2314453125 454.8765869140625 -1598.219116210938 454.8694458007812 L -1590.756225585938 450.5607299804688 Z" stroke="none" fill="#1a1a1a"/>
      </g>
      <g id="Path_76" data-name="Path 76" transform="translate(1882.515 -185.571)" fill="none" opacity="0.75">
        <path d="M-1774.276,239.314v62.492l54.12,31.246,54.12-31.246V239.314l-54.12-31.246Z" stroke="none"/>
        <path d="M -1720.156494140625 209.8005065917969 L -1772.776000976562 240.1803894042969 L -1772.776000976562 300.940185546875 L -1720.156494140625 331.3200378417969 L -1667.536987304688 300.940185546875 L -1667.536987304688 240.1803894042969 L -1720.156494140625 209.8005065917969 M -1720.156494140625 208.0684509277344 L -1666.036987304688 239.3143615722656 L -1666.036987304688 301.8061828613281 L -1720.156494140625 333.0520935058594 L -1774.276000976562 301.8061828613281 L -1774.276000976562 239.3143615722656 L -1720.156494140625 208.0684509277344 Z" stroke="none" fill="#b7e3ff"/>
      </g>
      <g id="Path_77" data-name="Path 77" transform="translate(1792.641 -376.246)" fill="none" opacity="0.75">
        <path d="M-1504.725,811.189v62.492l54.12,31.246,54.12-31.246V811.189l-54.12-31.246Z" stroke="none"/>
        <path d="M -1450.60595703125 781.6754760742188 L -1503.225463867188 812.0553588867188 L -1503.225463867188 872.8151245117188 L -1450.60595703125 903.195068359375 L -1397.986450195312 872.8151245117188 L -1397.986450195312 812.0553588867188 L -1450.60595703125 781.6754760742188 M -1450.60595703125 779.9434204101562 L -1396.486450195312 811.1893310546875 L -1396.486450195312 873.68115234375 L -1450.60595703125 904.9271240234375 L -1504.725463867188 873.68115234375 L -1504.725463867188 811.1893310546875 L -1450.60595703125 779.9434204101562 Z" stroke="none" fill="#b7e3ff"/>
      </g>
    </g>
    <rect id="Rectangle_25" data-name="Rectangle 25" width="500" height="500" transform="translate(0 -0.017)" fill="none"/>
  </g>
</svg>
