<svg xmlns="http://www.w3.org/2000/svg" xmlns:xlink="http://www.w3.org/1999/xlink" width="593.007" height="574.99" viewBox="0 0 593.007 574.99">
  <defs>
    <linearGradient id="linear-gradient" x1="26.92" y1="-1.497" x2="26.92" y2="-2.497" gradientUnits="objectBoundingBox">
      <stop offset="0" stop-color="#b7e3ff"/>
      <stop offset="1" stop-color="#1a1a1a"/>
    </linearGradient>
    <linearGradient id="linear-gradient-2" x1="26.375" y1="-1.026" x2="26.375" y2="-2.026" gradientUnits="objectBoundingBox">
      <stop offset="0" stop-color="#009ddd"/>
      <stop offset="1" stop-color="#1a1a1a"/>
    </linearGradient>
  </defs>
  <g id="Visual_03" data-name="Visual 03" transform="translate(0.355 74.99)">
    <rect id="Rectangle_26" data-name="Rectangle 26" width="500" height="500" transform="translate(499.645 500) rotate(180)" fill="#1a1a1a"/>
    <g id="Group_23" data-name="Group 23" transform="translate(161.133 -74.99)" opacity="0.1">
      <path id="Path_79" data-name="Path 79" d="M-60.865,137.3V-50.18l-162.359-93.738L-385.583-50.18V137.3l162.359,93.738Z" transform="translate(385.583 232.294)" opacity="0.75" fill="url(#linear-gradient)"/>
      <path id="Path_80" data-name="Path 80" d="M98.234,296.395V108.919L-64.125,15.182l-162.359,93.738V296.395l162.359,93.738Z" transform="translate(332.536 179.247)" fill="none" stroke="#fff" stroke-width="1.5" stroke-dasharray="18.75 9.375" opacity="0.75"/>
      <path id="Path_81" data-name="Path 81" d="M71.717,4.713V-182.762L-90.641-276.5-253-182.762V4.713L-90.641,98.451Z" transform="translate(341.377 276.5)" fill="url(#linear-gradient-2)"/>
      <g id="Group_22" data-name="Group 22" transform="translate(105.94 417.46)">
        <g id="Group_21" data-name="Group 21" transform="translate(0 0)">
          <path id="Path_82" data-name="Path 82" d="M-225.427,350.876v2.136h-1.056v-3.24h5.6v1.1Z" transform="translate(226.595 -349.772)"/>
          <path id="Path_83" data-name="Path 83" d="M-226.039,358.68a2.053,2.053,0,0,1-.612-1.5,2.04,2.04,0,0,1,.612-1.5,2.037,2.037,0,0,1,1.5-.612,2.04,2.04,0,0,1,1.5.612,2.042,2.042,0,0,1,.612,1.5,2.055,2.055,0,0,1-.612,1.5,2.033,2.033,0,0,1-1.5.616A2.031,2.031,0,0,1-226.039,358.68Zm.708-2.276a1.04,1.04,0,0,0-.312.772,1.053,1.053,0,0,0,.312.776,1.073,1.073,0,0,0,.792.312,1.073,1.073,0,0,0,.792-.312,1.053,1.053,0,0,0,.311-.776,1.04,1.04,0,0,0-.311-.772,1.08,1.08,0,0,0-.792-.308A1.08,1.08,0,0,0-225.331,356.4Z" transform="translate(226.651 -351.536)"/>
          <path id="Path_84" data-name="Path 84" d="M-223.172,363.527a1.079,1.079,0,0,1,.577.476,1.451,1.451,0,0,1,.192.74h-1.152a1.216,1.216,0,0,0-.192-.843.916.916,0,0,0-.824-.373h-1.912v-1.032h4v1.032Z" transform="translate(226.595 -354.014)"/>
        </g>
      </g>
      <g id="Path_85" data-name="Path 85" transform="translate(353.098 194.784)" fill="none" stroke-dasharray="18.75 9.375" opacity="0.75">
        <path d="M-93.324,137.31V24.825L-190.74-31.417l-97.415,56.243V137.31l97.415,56.243Z" stroke="none"/>
        <path d="M -190.7395782470703 193.5530548095703 C -190.7395782470703 193.5530548095703 -206.9775543212891 184.1780548095703 -206.9775543212891 184.1780548095703 L -206.2275543212891 182.8790283203125 L -189.9895782470703 192.2540283203125 L -190.7395782470703 193.5530548095703 Z M -215.0965423583984 179.4905548095703 L -216.2434539794922 178.8283996582031 C -216.2447967529297 178.8276214599609 -216.2461547851562 178.8268432617188 -216.2474975585938 178.8260498046875 L -216.2552947998047 178.8215484619141 C -216.2563781738281 178.8209228515625 -216.2578125 178.8200988769531 -216.2588958740234 178.8194732666016 L -216.4012298583984 178.7373046875 C -216.4046478271484 178.7353210449219 -216.4079895019531 178.7333984375 -216.4114227294922 178.7314147949219 L -216.4314422607422 178.7198486328125 C -216.4328765869141 178.7190246582031 -216.4341735839844 178.7182769775391 -216.4356079101562 178.7174530029297 L -216.4412231445312 178.7142181396484 C -216.4438171386719 178.7127075195312 -216.4461212158203 178.7113800048828 -216.44873046875 178.7098693847656 L -216.4592132568359 178.7038269042969 C -216.4597930908203 178.7034912109375 -216.4605560302734 178.7030487060547 -216.4611358642578 178.7027130126953 L -216.5156860351562 178.6712188720703 C -216.5162811279297 178.6708831787109 -216.5166931152344 178.6706390380859 -216.5172729492188 178.6703033447266 L -216.6309509277344 178.6046752929688 C -216.6315612792969 178.6043243408203 -216.6320343017578 178.6040496826172 -216.6326446533203 178.6036987304688 L -216.7949523925781 178.5099792480469 C -216.7955932617188 178.5096130371094 -216.7960815429688 178.5093231201172 -216.7967224121094 178.5089569091797 L -216.8702545166016 178.4665069580078 C -216.8725280761719 178.4651947021484 -216.8743896484375 178.4641265869141 -216.8766632080078 178.4628143310547 L -216.8861694335938 178.4573211669922 C -216.8871459960938 178.4567565917969 -216.8889923095703 178.4556884765625 -216.8899688720703 178.4551239013672 L -216.9029235839844 178.4476470947266 C -216.9192199707031 178.438232421875 -216.9359130859375 178.4286041259766 -216.9523773193359 178.4190979003906 L -216.9667816162109 178.4107818603516 C -216.9674377441406 178.410400390625 -216.9685821533203 178.4097442626953 -216.9692535400391 178.4093627929688 L -216.9766998291016 178.4050445556641 C -216.9800109863281 178.4031372070312 -216.9837493896484 178.4009857177734 -216.9870758056641 178.3990631103516 L -216.9971160888672 178.3932647705078 C -216.998779296875 178.3923034667969 -217.0008239746094 178.3911285400391 -217.0024871826172 178.3901672363281 L -217.0127716064453 178.3842315673828 C -217.0137786865234 178.3836517333984 -217.0148468017578 178.3830261230469 -217.0158538818359 178.3824462890625 L -217.0286865234375 178.3750305175781 C -217.0310363769531 178.3736877441406 -217.0339202880859 178.3720092773438 -217.0362701416016 178.3706512451172 L -217.0410308837891 178.3679046630859 C -217.0443878173828 178.365966796875 -217.0476989746094 178.3640594482422 -217.0510559082031 178.3621215820312 L -217.0628204345703 178.3553314208984 C -217.0628204345703 178.3553314208984 -217.0636291503906 178.3548736572266 -217.0636291503906 178.3548736572266 L -217.1283416748047 178.3175048828125 C -217.1286773681641 178.3173065185547 -217.12890625 178.3171691894531 -217.1292419433594 178.3169708251953 L -217.1402130126953 178.3106384277344 C -217.1422729492188 178.3094635009766 -217.1441192626953 178.3083953857422 -217.1461791992188 178.3072052001953 L -217.1888427734375 178.2825775146484 C -217.1922912597656 178.2805786132812 -217.1956634521484 178.2786407470703 -217.1991271972656 178.2766418457031 L -217.2077484130859 178.2716522216797 C -217.20947265625 178.2706604003906 -217.2108917236328 178.2698364257812 -217.2126159667969 178.2688446044922 L -217.2254486083984 178.2614440917969 C -217.2449188232422 178.2501983642578 -217.2648468017578 178.2386932373047 -217.2845306396484 178.2273254394531 L -217.2898864746094 178.2242431640625 C -217.3000793457031 178.2183532714844 -217.3097686767578 178.2127532958984 -217.3200378417969 178.2068328857422 L -217.3206634521484 178.2064666748047 C -217.3263244628906 178.2032012939453 -217.331298828125 178.2003173828125 -217.3369750976562 178.1970520019531 L -217.3377380371094 178.1966094970703 C -217.3416442871094 178.1943511962891 -217.3450622558594 178.1923675537109 -217.3489837646484 178.1901245117188 L -217.3608551025391 178.1832580566406 C -217.3815002441406 178.1713409423828 -217.4020080566406 178.1595001220703 -217.4228668212891 178.1474609375 L -217.4232330322266 178.1472473144531 C -217.4343872070312 178.1408081054688 -217.4455108642578 178.1343841552734 -217.4567260742188 178.1279144287109 L -217.4601440429688 178.1259307861328 C -217.4684600830078 178.1211242675781 -217.4763641357422 178.1165771484375 -217.4847106933594 178.1117553710938 L -217.4960479736328 178.1052093505859 C -217.5171661376953 178.093017578125 -217.5379180908203 178.0810241699219 -217.5592498779297 178.0687255859375 L -217.5676574707031 178.0638580322266 C -217.5717010498047 178.0615234375 -217.5753326416016 178.0594329833984 -217.5793914794922 178.0570831298828 L -217.5820770263672 178.0555419921875 C -217.5854034423828 178.0536193847656 -217.5880584716797 178.0520935058594 -217.5913696289062 178.0501708984375 L -217.6062469482422 178.0415802001953 C -217.6080932617188 178.0405120849609 -217.6091003417969 178.0399322509766 -217.6109619140625 178.0388641357422 L -217.6585845947266 178.0113677978516 C -217.6604461669922 178.0102844238281 -217.6617889404297 178.009521484375 -217.6636505126953 178.0084381103516 L -217.6723480224609 178.00341796875 C -217.6828155517578 177.9973754882812 -217.693603515625 177.9911499023438 -217.7041168212891 177.9850769042969 L -217.7069549560547 177.9834442138672 C -217.7291107177734 177.9706420898438 -217.7514038085938 177.9577789306641 -217.7737731933594 177.9448699951172 L -217.7818603515625 177.940185546875 C -217.8281555175781 177.9134674072266 -217.8745269775391 177.8866882324219 -217.9216766357422 177.8594665527344 L -217.9281311035156 177.8557434082031 C -222.581298828125 175.1692352294922 -231.3345184326172 170.1155548095703 -231.3345184326172 170.1155548095703 L -230.5845184326172 168.8165283203125 L -214.3465423583984 178.1915283203125 L -215.0965423583984 179.4905548095703 Z M -239.4535217285156 165.4280548095703 L -243.6620025634766 162.998291015625 C -243.6646423339844 162.9967651367188 -243.6671295166016 162.9953308105469 -243.6697692871094 162.9938049316406 L -243.7715759277344 162.9350280761719 C -243.7733612060547 162.9340057373047 -243.7751312255859 162.9329833984375 -243.7769012451172 162.9319458007812 L -244.0954284667969 162.748046875 C -244.0954284667969 162.748046875 -244.0960693359375 162.7476806640625 -244.0960693359375 162.7476806640625 L -244.1152038574219 162.7366333007812 C -244.1170196533203 162.7355804443359 -244.1184387207031 162.7347717285156 -244.1202392578125 162.7337188720703 L -244.2921905517578 162.6344451904297 C -244.2926483154297 162.6341857910156 -244.2927703857422 162.6341094970703 -244.2932281494141 162.6338500976562 L -244.3094329833984 162.6244964599609 C -244.3117218017578 162.6231689453125 -244.3140106201172 162.6218566894531 -244.3162994384766 162.6205291748047 L -244.4672546386719 162.5333709716797 C -244.4686431884766 162.5325775146484 -244.4700775146484 162.5317535400391 -244.4714660644531 162.5309448242188 L -244.7047729492188 162.396240234375 C -244.7099151611328 162.3932800292969 -244.7146148681641 162.3905639648438 -244.7197570800781 162.3875885009766 L -244.7324371337891 162.3802795410156 C -244.7422485351562 162.3746032714844 -244.7520446777344 162.3689422607422 -244.7618865966797 162.3632659912109 L -244.78173828125 162.351806640625 C -244.7915802001953 162.3461303710938 -244.8010559082031 162.3406524658203 -244.8109130859375 162.3349609375 L -244.8212585449219 162.3289947509766 C -244.8329925537109 162.3222198486328 -244.8449859619141 162.3152923583984 -244.8567352294922 162.3085021972656 L -244.8656158447266 162.3033752441406 C -244.8783111572266 162.2960510253906 -244.8918609619141 162.2882232666016 -244.9045715332031 162.2808837890625 L -244.9087371826172 162.2784881591797 C -244.9139099121094 162.2754974365234 -244.9186096191406 162.2727813720703 -244.9237976074219 162.2697906494141 L -244.9602966308594 162.2487182617188 C -245.0155181884766 162.2168273925781 -245.0713348388672 162.1846160888672 -245.1269073486328 162.1525268554688 L -245.1403503417969 162.1447601318359 C -245.1674499511719 162.1291198730469 -245.1944122314453 162.1135406494141 -245.2215881347656 162.0978698730469 L -245.2256774902344 162.0955047607422 C -245.2518920898438 162.0803680419922 -245.2779388427734 162.0653228759766 -245.3042297363281 162.0501556396484 L -245.3290252685547 162.0358276367188 C -245.4467010498047 161.9678955078125 -245.5654449462891 161.8993377685547 -245.6843566894531 161.8306732177734 L -245.6857147216797 161.8298950195312 C -245.8080291748047 161.75927734375 -245.9306793212891 161.6884613037109 -246.0540771484375 161.6172180175781 L -246.0621185302734 161.6125793457031 C -250.556640625 159.0176696777344 -255.6914825439453 156.0530548095703 -255.6914825439453 156.0530548095703 L -254.9414825439453 154.7540283203125 L -238.7035217285156 164.1290283203125 L -239.4535217285156 165.4280548095703 Z M -263.8104553222656 151.3655548095703 C -263.8104553222656 151.3655548095703 -280.0484619140625 141.9905548095703 -280.0484619140625 141.9905548095703 L -279.2984619140625 140.6915283203125 L -263.0604553222656 150.0665283203125 L -263.8104553222656 151.3655548095703 Z M -286.6546630859375 137.2956695556641 L -288.1546630859375 137.2956695556641 C -288.1546630859375 137.2956695556641 -288.1546630859375 118.5456771850586 -288.1546630859375 118.5456771850586 L -286.6546630859375 118.5456771850586 L -286.6546630859375 137.2956695556641 Z M -286.6546630859375 109.1706771850586 L -288.1546630859375 109.1706771850586 C -288.1546630859375 109.1706771850586 -288.1546630859375 90.42067718505859 -288.1546630859375 90.42067718505859 L -286.6546630859375 90.42067718505859 L -286.6546630859375 109.1706771850586 Z M -286.6546630859375 81.04567718505859 L -288.1546630859375 81.04567718505859 C -288.1546630859375 81.04567718505859 -288.1546630859375 62.29567718505859 -288.1546630859375 62.29567718505859 L -286.6546630859375 62.29567718505859 L -286.6546630859375 81.04567718505859 Z M -286.6546630859375 52.92067718505859 L -288.1546630859375 52.92067718505859 C -288.1546630859375 52.92067718505859 -288.1546630859375 34.17067718505859 -288.1546630859375 34.17067718505859 L -286.6546630859375 34.17067718505859 L -286.6546630859375 52.92067718505859 Z M -287.379150390625 26.10947036743164 L -288.129150390625 24.8104419708252 C -288.129150390625 24.8104419708252 -271.8911743164062 15.4354419708252 -271.8911743164062 15.4354419708252 L -271.1411743164062 16.73447036743164 L -287.379150390625 26.10947036743164 Z M -263.0221557617188 12.04697132110596 L -263.7721557617188 10.7479419708252 C -263.7721557617188 10.7479419708252 -247.5341949462891 1.372941851615906 -247.5341949462891 1.372941851615906 L -246.7841949462891 2.671971321105957 L -263.0221557617188 12.04697132110596 Z M -238.6651916503906 -2.015528678894043 L -239.4151916503906 -3.314587593078613 L -223.1772155761719 -12.6895809173584 L -222.4272308349609 -11.39052867889404 L -238.6651916503906 -2.015528678894043 Z M -214.3082580566406 -16.07802963256836 L -215.0582580566406 -17.3770866394043 L -198.8202819824219 -26.7520751953125 L -198.0702514648438 -25.45302963256836 L -214.3082580566406 -16.07802963256836 Z M -175.2133178710938 -20.72132301330566 L -191.4512786865234 -30.09632301330566 L -190.7012786865234 -31.39535140991211 C -190.7012786865234 -31.39535140991211 -174.4633178710938 -22.02035140991211 -174.4633178710938 -22.02035140991211 L -175.2133178710938 -20.72132301330566 Z M -150.8563385009766 -6.658823013305664 L -167.0943145751953 -16.03382301330566 L -166.3443145751953 -17.33285140991211 C -166.3443145751953 -17.33285140991211 -150.1063385009766 -7.957852363586426 -150.1063385009766 -7.957852363586426 L -150.8563385009766 -6.658823013305664 Z M -126.4993743896484 7.403676986694336 L -142.7373352050781 -1.971322894096375 L -141.9873352050781 -3.270352363586426 C -141.9873352050781 -3.270352363586426 -125.7493743896484 6.104647636413574 -125.7493743896484 6.104647636413574 L -126.4993743896484 7.403676986694336 Z M -102.1424026489258 21.46617698669434 L -118.38037109375 12.09117698669434 L -117.63037109375 10.79211807250977 L -101.3924102783203 20.16712951660156 L -102.1424026489258 21.46617698669434 Z M -93.32443237304688 43.63409042358398 L -94.82443237304688 43.63409042358398 L -94.82443237304688 24.88408851623535 L -93.32443237304688 24.88408851623535 L -93.32443237304688 43.63409042358398 Z M -93.32443237304688 71.75908660888672 L -94.82443237304688 71.75908660888672 L -94.82443237304688 53.00909042358398 L -93.32443237304688 53.00909042358398 L -93.32443237304688 71.75908660888672 Z M -93.32443237304688 99.88408660888672 L -94.82443237304688 99.88408660888672 L -94.82443237304688 81.13408660888672 L -93.32443237304688 81.13408660888672 L -93.32443237304688 99.88408660888672 Z M -93.32443237304688 128.0090942382812 L -94.82443237304688 128.0090942382812 L -94.82443237304688 109.2590866088867 L -93.32443237304688 109.2590866088867 L -93.32443237304688 128.0090942382812 Z M -109.6261978149414 146.7222595214844 L -110.3761978149414 145.4232025146484 L -94.13819122314453 136.0482330322266 L -93.38819122314453 137.3472595214844 L -109.6261978149414 146.7222595214844 Z M -133.9831695556641 160.7847290039062 L -134.7331695556641 159.4857025146484 L -118.4951629638672 150.1107025146484 L -117.7451629638672 151.4097595214844 L -124.8554229736328 155.5148620605469 C -124.8554229736328 155.5148620605469 -124.8557052612305 155.5150146484375 -124.8557052612305 155.5150146484375 L -124.9370346069336 155.5619812011719 C -124.9434432983398 155.565673828125 -124.9489669799805 155.5688629150391 -124.9553756713867 155.5725555419922 L -124.9729995727539 155.5827331542969 C -124.9838409423828 155.5890045166016 -124.9935302734375 155.5945892333984 -125.0043792724609 155.6008605957031 L -125.0132141113281 155.60595703125 C -125.0418167114258 155.6224670410156 -125.0707778930664 155.6391906738281 -125.0994033813477 155.6557159423828 L -125.1086730957031 155.6610717773438 C -129.4037628173828 158.1408233642578 -133.9831695556641 160.7847290039062 -133.9831695556641 160.7847290039062 Z M -158.3401336669922 174.8472290039062 L -159.0901336669922 173.5482025146484 L -142.8521423339844 164.1732025146484 L -142.1021423339844 165.4722290039062 C -142.1021423339844 165.4722290039062 -158.3401336669922 174.8472290039062 -158.3401336669922 174.8472290039062 Z M -182.6970825195312 188.9097290039062 L -183.4470825195312 187.6107025146484 L -167.2091064453125 178.2357025146484 L -166.4591064453125 179.5347290039062 L -182.6970825195312 188.9097290039062 Z" stroke="none" fill="#1a1a1a"/>
      </g>
      <g id="Path_86" data-name="Path 86" transform="translate(278.395 65.468)" fill="none" opacity="0.75">
        <path d="M44.135,450.169V387.677l-54.12-31.246L-64.1,387.677v62.492l54.12,31.246Z" stroke="none"/>
        <path d="M -9.984222412109375 479.68310546875 L 42.63527679443359 449.30322265625 L 42.63527679443359 388.54345703125 L -9.984222412109375 358.1635437011719 L -62.60372161865234 388.54345703125 L -62.60372161865234 449.30322265625 L -9.984222412109375 479.68310546875 M -9.984222412109375 481.4151611328125 L -64.10372161865234 450.1692504882812 L -64.10372161865234 387.6774291992188 L -9.984222412109375 356.4314880371094 L 44.13527679443359 387.6774291992188 L 44.13527679443359 450.1692504882812 L -9.984222412109375 481.4151611328125 Z" stroke="none" fill="#b7e3ff"/>
      </g>
      <g id="Path_87" data-name="Path 87" transform="translate(368.269 256.142)" fill="none" opacity="0.75">
        <path d="M-225.415-121.706V-184.2l-54.12-31.246L-333.654-184.2v62.492l54.119,31.246Z" stroke="none"/>
        <path d="M -279.53466796875 -92.19185638427734 L -226.9151306152344 -122.5717468261719 L -226.9151306152344 -183.3315277099609 L -279.53466796875 -213.7113952636719 L -332.1541137695312 -183.3315277099609 L -332.1541137695312 -122.5717468261719 L -279.53466796875 -92.19185638427734 M -279.53466796875 -90.45981597900391 L -333.6541137695312 -121.7057266235352 L -333.6541137695312 -184.1975402832031 L -279.53466796875 -215.4434509277344 L -225.4151306152344 -184.1975402832031 L -225.4151306152344 -121.7057266235352 L -279.53466796875 -90.45981597900391 Z" stroke="none" fill="#b7e3ff"/>
      </g>
    </g>
    <rect id="Rectangle_27" data-name="Rectangle 27" width="500" height="500" transform="translate(-0.355)" fill="none"/>
  </g>
</svg>
